<?xml version="1.0" encoding="UTF-8"?>
<svg id="Layer_2" data-name="Layer 2" xmlns="http://www.w3.org/2000/svg" viewBox="0 0 659 686.08">
  <defs>
    <style>
      .cls-1 {
        fill: #000a4d;
      }
    </style>
  </defs>
  <g id="Layer_1-2" data-name="Layer 1">
    <g>
      <path class="cls-1" d="M89.21,683.11l-37.19-67.77-15.97,18.94v48.83H0v-159.72h36.05v60.92h1.37l48.14-60.92h44.49l-53.16,62.75,54.08,96.97h-41.76,0Z"/>
      <path class="cls-1" d="M174.09,523.39h62.52c32.63,0,56.59,21.45,56.59,52.71,0,21.45-12.09,38.33-28.29,46.55l34,60.47h-40.16l-27.15-53.39h-21.45v53.39h-36.05v-159.72h0ZM233.41,598.92c13,0,22.82-7.99,22.82-22.82,0-13.23-9.13-21.9-23.27-21.9h-22.82v44.72h23.27Z"/>
      <path class="cls-1" d="M331.21,603.25c0-47,36.05-82.83,84.88-82.83s84.88,36.28,84.88,82.83-36.28,82.83-84.88,82.83-84.88-35.59-84.88-82.83h0ZM463.32,603.25c0-27.15-19.62-48.14-47.23-48.14s-47.46,20.99-47.46,48.14,19.62,48.14,47.46,48.14,47.23-20.54,47.23-48.14Z"/>
      <path class="cls-1" d="M533.96,631.09h34.45c.68,12.55,10.72,21.9,28.98,21.9,15.06,0,23.96-5.7,23.96-15.74,0-29.66-83.28-3.19-83.28-68.91,0-26.7,20.76-47.92,57.5-47.92,33.31,0,57.95,17.11,59.32,50.88h-36.05c-.23-10.95-8.44-18.71-23.27-18.71s-21.45,6.39-21.45,14.83c0,28.29,84.88,2.51,84.88,67.08,0,29.66-22.59,51.57-62.75,51.57s-62.52-22.13-62.29-54.99h0Z"/>
    </g>
    <path class="cls-1" d="M534.27,0H210.34l-117.41,154.11c-23.94,31.43-23.94,73.66,0,105.09l105.07,137.9,12.36,16.2h323.92l-157.16-206.64L534.28,0h-.01ZM495.12,19.42L215.14,387.58l-106.77-140.14c-18.88-24.78-18.88-56.79,0-81.55L219.96,19.42h275.16ZM234.73,393.89l130.2-171.2,130.2,171.2H234.73Z"/>
  </g>
</svg>